# This file uses centimeters as units for non-parametric coordinates.

mtllib DirtPatch.mtl
g default
v -10.049953 -0.251896 5.897295
v -8.039962 -0.245504 5.897295
v -6.029972 -0.215973 5.897295
v -4.019981 -0.215973 5.897295
v -2.009990 -0.215973 5.897295
v 0.000000 -0.215973 5.897295
v 2.009991 -0.215973 5.897295
v 4.019981 -0.215973 5.897295
v 6.029972 -0.215973 5.897295
v 8.039963 -0.245504 5.897295
v 10.049953 -0.251896 5.897295
v -10.049953 -0.251896 4.212354
v -8.039962 -0.021096 4.212354
v -6.029972 0.037636 4.212354
v -4.019981 0.037636 4.212354
v -2.009990 0.037636 4.212354
v 0.000000 0.037636 4.212354
v 2.009991 0.037636 4.212354
v 4.019981 0.037636 4.212354
v 6.029972 0.037636 4.212354
v 8.039963 -0.021096 4.212354
v 10.049953 -0.251896 4.212354
v -10.049953 -0.249657 2.527412
v -8.039962 0.059388 2.527412
v -6.029972 0.150985 2.527412
v -4.019981 0.150985 2.527412
v -2.009990 0.150985 2.527412
v 0.000000 0.150985 2.527412
v 2.009991 0.150985 2.527412
v 4.019981 0.150985 2.527412
v 6.029972 0.150985 2.527412
v 8.039963 0.059388 2.527412
v 10.049953 -0.249657 2.527412
v -10.049953 -0.249657 0.842470
v -8.039962 0.059388 0.842470
v -6.029972 0.150985 0.842470
v -4.019981 0.150985 0.842470
v -2.009990 0.150985 0.842470
v 0.000000 0.150985 0.842470
v 2.009991 0.150985 0.842470
v 4.019981 0.150985 0.842470
v 6.029972 0.150985 0.842470
v 8.039963 0.059388 0.842470
v 10.049953 -0.249657 0.842470
v -10.049953 -0.249657 -0.842471
v -8.039962 0.059388 -0.842471
v -6.029972 0.150985 -0.842471
v -4.019981 0.150985 -0.842471
v -2.009990 0.150985 -0.842471
v 0.000000 0.150985 -0.842471
v 2.009991 0.150985 -0.842471
v 4.019981 0.150985 -0.842471
v 6.029972 0.150985 -0.842471
v 8.039963 0.059388 -0.842471
v 10.049953 -0.249657 -0.842471
v -10.049953 -0.249657 -2.527412
v -8.039962 0.059388 -2.527412
v -6.029972 0.150985 -2.527412
v -4.019981 0.150985 -2.527412
v -2.009990 0.150985 -2.527412
v 0.000000 0.150985 -2.527412
v 2.009991 0.150985 -2.527412
v 4.019981 0.150985 -2.527412
v 6.029972 0.150985 -2.527412
v 8.039963 0.059388 -2.527412
v 10.049953 -0.249657 -2.527412
v -10.049953 -0.251896 -4.212354
v -8.039962 -0.021096 -4.212354
v -6.029972 0.037636 -4.212354
v -4.019981 0.037636 -4.212354
v -2.009990 0.037636 -4.212354
v 0.000000 0.037636 -4.212354
v 2.009991 0.037636 -4.212354
v 4.019981 0.037636 -4.212354
v 6.029972 0.037636 -4.212354
v 8.039963 -0.021096 -4.212354
v 10.049953 -0.251896 -4.212354
v -10.049953 -0.251896 -5.897295
v -8.039962 -0.245504 -5.897295
v -6.029972 -0.215973 -5.897295
v -4.019981 -0.215973 -5.897295
v -2.009990 -0.215973 -5.897295
v 0.000000 -0.215973 -5.897295
v 2.009991 -0.215973 -5.897295
v 4.019981 -0.215973 -5.897295
v 6.029972 -0.215973 -5.897295
v 8.039963 -0.245504 -5.897295
v 10.049953 -0.251896 -5.897295
vt -2.662449 5.537249
vt -2.662449 4.529799
vt -1.817921 4.529799
vt -1.817921 5.537249
vt -2.662449 3.522349
vt -1.817921 3.522349
vt -0.973392 4.529799
vt -0.973392 5.537249
vt -2.662449 2.514900
vt -1.817921 2.514900
vt -0.973392 3.522349
vt -0.128864 4.529799
vt -0.128864 5.537249
vt -2.662449 1.507450
vt -1.817921 1.507450
vt -0.973392 2.514900
vt -0.128864 3.522349
vt 0.715664 4.529799
vt 0.715664 5.537249
vt -2.662449 0.500000
vt -1.817921 0.500000
vt -0.973392 1.507450
vt -0.128864 2.514900
vt 0.715664 3.522349
vt 1.560191 4.529799
vt 1.560191 5.537249
vt -2.662449 -0.507450
vt -1.817921 -0.507450
vt -0.973392 0.500000
vt -0.128864 1.507450
vt 0.715664 2.514900
vt 1.560191 3.522349
vt 2.404721 4.529799
vt 2.404721 5.537249
vt -2.662449 -1.514900
vt -1.817921 -1.514900
vt -0.973392 -0.507450
vt -0.128864 0.500000
vt 0.715664 1.507450
vt 1.560191 2.514900
vt 2.404721 3.522349
vt 3.249248 4.529799
vt 3.249248 5.537249
vt -2.662449 -2.522349
vt -1.817921 -2.522349
vt -0.973392 -1.514900
vt -0.128864 -0.507450
vt 0.715664 0.500000
vt 1.560191 1.507450
vt 2.404721 2.514900
vt 3.249248 3.522349
vt -2.662449 -3.529799
vt -1.817921 -3.529799
vt -0.973392 -2.522349
vt -0.128864 -1.514900
vt 0.715664 -0.507450
vt 1.560191 0.500000
vt 2.404721 1.507450
vt 3.249248 2.514900
vt -2.662449 -4.537249
vt -1.817921 -4.537249
vt -0.973392 -3.529799
vt -0.128864 -2.522349
vt 0.715664 -1.514900
vt 1.560191 -0.507450
vt 2.404721 0.500000
vt 3.249248 1.507450
vt -0.973392 -4.537249
vt -0.128864 -3.529799
vt 0.715664 -2.522349
vt 1.560191 -1.514900
vt 2.404721 -0.507450
vt 3.249248 0.500000
vt -0.128864 -4.537249
vt 0.715664 -3.529799
vt 1.560191 -2.522349
vt 2.404721 -1.514900
vt 3.249248 -0.507450
vt 0.715664 -4.537249
vt 1.560191 -3.529799
vt 2.404721 -2.522349
vt 3.249248 -1.514900
vt 1.560191 -4.537249
vt 2.404721 -3.529799
vt 3.249248 -2.522349
vt 2.404721 -4.537249
vt 3.249248 -3.529799
vt 3.249248 -4.537249
vn -0.058771 0.996065 0.066330
vn -0.040243 0.993810 0.103548
vn -0.062922 0.995395 0.072311
vn -0.096098 0.994340 0.045313
vn -0.010870 0.989426 0.144634
vn -0.014758 0.994502 0.103675
vn 0.000000 0.988862 0.148839
vn 0.000000 0.994123 0.108253
vn 0.000000 0.988862 0.148839
vn 0.000000 0.994123 0.108253
vn 0.000000 0.988862 0.148839
vn 0.000000 0.994123 0.108253
vn 0.000000 0.988862 0.148839
vn 0.000000 0.994123 0.108253
vn 0.000000 0.988862 0.148839
vn 0.000000 0.994123 0.108253
vn 0.010870 0.989426 0.144634
vn 0.014758 0.994502 0.103675
vn 0.040243 0.993810 0.103548
vn 0.062922 0.995395 0.072311
vn 0.058771 0.996065 0.066330
vn 0.096098 0.994340 0.045313
vn -0.092271 0.995524 0.020433
vn -0.142541 0.989714 0.012148
vn -0.020719 0.999300 0.031163
vn 0.000000 0.999435 0.033617
vn 0.000000 0.999435 0.033617
vn 0.000000 0.999435 0.033617
vn 0.000000 0.999435 0.033617
vn 0.000000 0.999435 0.033617
vn 0.020719 0.999300 0.031163
vn 0.092271 0.995524 0.020433
vn 0.142541 0.989714 0.012148
vn -0.099171 0.995070 0.000000
vn -0.151969 0.988385 0.000000
vn -0.022779 0.999741 0.000000
vn 0.000000 1.000000 0.000000
vn 0.000000 1.000000 0.000000
vn 0.000000 1.000000 0.000000
vn 0.000000 1.000000 0.000000
vn 0.000000 1.000000 0.000000
vn 0.022779 0.999741 0.000000
vn 0.099171 0.995070 0.000000
vn 0.151969 0.988385 0.000000
vn -0.099171 0.995070 0.000000
vn -0.151969 0.988385 0.000000
vn -0.022779 0.999741 0.000000
vn 0.000000 1.000000 0.000000
vn 0.000000 1.000000 0.000000
vn 0.000000 1.000000 0.000000
vn 0.000000 1.000000 0.000000
vn 0.000000 1.000000 0.000000
vn 0.022779 0.999741 0.000000
vn 0.099171 0.995070 0.000000
vn 0.151969 0.988385 0.000000
vn -0.092271 0.995524 -0.020433
vn -0.142541 0.989714 -0.012148
vn -0.020719 0.999300 -0.031163
vn 0.000000 0.999435 -0.033617
vn 0.000000 0.999435 -0.033617
vn 0.000000 0.999435 -0.033617
vn 0.000000 0.999435 -0.033617
vn 0.000000 0.999435 -0.033617
vn 0.020719 0.999300 -0.031163
vn 0.092271 0.995524 -0.020433
vn 0.142541 0.989714 -0.012148
vn -0.062922 0.995395 -0.072311
vn -0.096098 0.994340 -0.045313
vn -0.014758 0.994502 -0.103675
vn 0.000000 0.994123 -0.108253
vn 0.000000 0.994123 -0.108253
vn 0.000000 0.994123 -0.108253
vn 0.000000 0.994123 -0.108253
vn 0.000000 0.994123 -0.108253
vn 0.014758 0.994502 -0.103675
vn 0.062922 0.995395 -0.072311
vn 0.096098 0.994340 -0.045313
vn -0.040243 0.993810 -0.103548
vn -0.058771 0.996065 -0.066330
vn -0.010870 0.989426 -0.144634
vn 0.000000 0.988862 -0.148839
vn 0.000000 0.988862 -0.148839
vn 0.000000 0.988862 -0.148839
vn 0.000000 0.988862 -0.148839
vn 0.000000 0.988862 -0.148839
vn 0.010870 0.989426 -0.144634
vn 0.040243 0.993810 -0.103548
vn 0.058771 0.996065 -0.066330
s 1
g DirtPatch
usemtl lambert9SG
f 1/1/1 2/2/2 13/3/3 12/4/4
f 2/2/2 3/5/5 14/6/6 13/3/3
f 3/5/5 4/9/7 15/10/8 14/6/6
f 4/9/7 5/14/9 16/15/10 15/10/8
f 5/14/9 6/20/11 17/21/12 16/15/10
f 6/20/11 7/27/13 18/28/14 17/21/12
f 7/27/13 8/35/15 19/36/16 18/28/14
f 8/35/15 9/44/17 20/45/18 19/36/16
f 9/44/17 10/52/19 21/53/20 20/45/18
f 10/52/19 11/60/21 22/61/22 21/53/20
f 12/4/4 13/3/3 24/7/23 23/8/24
f 13/3/3 14/6/6 25/11/25 24/7/23
f 14/6/6 15/10/8 26/16/26 25/11/25
f 15/10/8 16/15/10 27/22/27 26/16/26
f 16/15/10 17/21/12 28/29/28 27/22/27
f 17/21/12 18/28/14 29/37/29 28/29/28
f 18/28/14 19/36/16 30/46/30 29/37/29
f 19/36/16 20/45/18 31/54/31 30/46/30
f 20/45/18 21/53/20 32/62/32 31/54/31
f 21/53/20 22/61/22 33/68/33 32/62/32
f 23/8/24 24/7/23 35/12/34 34/13/35
f 24/7/23 25/11/25 36/17/36 35/12/34
f 25/11/25 26/16/26 37/23/37 36/17/36
f 26/16/26 27/22/27 38/30/38 37/23/37
f 27/22/27 28/29/28 39/38/39 38/30/38
f 28/29/28 29/37/29 40/47/40 39/38/39
f 29/37/29 30/46/30 41/55/41 40/47/40
f 30/46/30 31/54/31 42/63/42 41/55/41
f 31/54/31 32/62/32 43/69/43 42/63/42
f 32/62/32 33/68/33 44/74/44 43/69/43
f 34/13/35 35/12/34 46/18/45 45/19/46
f 35/12/34 36/17/36 47/24/47 46/18/45
f 36/17/36 37/23/37 48/31/48 47/24/47
f 37/23/37 38/30/38 49/39/49 48/31/48
f 38/30/38 39/38/39 50/48/50 49/39/49
f 39/38/39 40/47/40 51/56/51 50/48/50
f 40/47/40 41/55/41 52/64/52 51/56/51
f 41/55/41 42/63/42 53/70/53 52/64/52
f 42/63/42 43/69/43 54/75/54 53/70/53
f 43/69/43 44/74/44 55/79/55 54/75/54
f 45/19/46 46/18/45 57/25/56 56/26/57
f 46/18/45 47/24/47 58/32/58 57/25/56
f 47/24/47 48/31/48 59/40/59 58/32/58
f 48/31/48 49/39/49 60/49/60 59/40/59
f 49/39/49 50/48/50 61/57/61 60/49/60
f 50/48/50 51/56/51 62/65/62 61/57/61
f 51/56/51 52/64/52 63/71/63 62/65/62
f 52/64/52 53/70/53 64/76/64 63/71/63
f 53/70/53 54/75/54 65/80/65 64/76/64
f 54/75/54 55/79/55 66/83/66 65/80/65
f 56/26/57 57/25/56 68/33/67 67/34/68
f 57/25/56 58/32/58 69/41/69 68/33/67
f 58/32/58 59/40/59 70/50/70 69/41/69
f 59/40/59 60/49/60 71/58/71 70/50/70
f 60/49/60 61/57/61 72/66/72 71/58/71
f 61/57/61 62/65/62 73/72/73 72/66/72
f 62/65/62 63/71/63 74/77/74 73/72/73
f 63/71/63 64/76/64 75/81/75 74/77/74
f 64/76/64 65/80/65 76/84/76 75/81/75
f 65/80/65 66/83/66 77/86/77 76/84/76
f 67/34/68 68/33/67 79/42/78 78/43/79
f 68/33/67 69/41/69 80/51/80 79/42/78
f 69/41/69 70/50/70 81/59/81 80/51/80
f 70/50/70 71/58/71 82/67/82 81/59/81
f 71/58/71 72/66/72 83/73/83 82/67/82
f 72/66/72 73/72/73 84/78/84 83/73/83
f 73/72/73 74/77/74 85/82/85 84/78/84
f 74/77/74 75/81/75 86/85/86 85/82/85
f 75/81/75 76/84/76 87/87/87 86/85/86
f 76/84/76 77/86/77 88/88/88 87/87/87
