# This file uses centimeters as units for non-parametric coordinates.

mtllib Cliff.mtl
g default
v 14.506674 -0.327655 -2.886012
v 13.006320 -0.327655 -6.071757
v 10.619611 -0.327655 -7.734864
v 7.509200 -0.327655 -8.305351
v 3.887052 -0.327655 -8.671925
v 0.000002 -0.327655 -8.749806
v -3.887049 -0.327655 -8.671573
v -7.509197 -0.327655 -8.305351
v -10.619611 -0.327655 -7.734870
v -13.006319 -0.327655 -6.071758
v -14.506674 -0.327655 -2.886012
v -15.018400 -0.327655 0.002126
v -14.506676 -0.327655 2.916979
v -13.006320 -0.327655 6.136728
v -10.619612 -0.327655 7.775351
v -7.509200 -0.327655 8.309697
v -3.887051 -0.327655 8.653014
v -0.000001 -0.327655 8.725980
v 3.887052 -0.327655 8.652707
v 7.509202 -0.327655 8.309697
v 10.619614 -0.327655 7.775351
v 13.006322 -0.327655 6.136727
v 14.506680 -0.327655 2.916980
v 15.018403 -0.327655 0.002126
v 12.856744 12.504648 -2.559127
v 11.527041 12.504648 -5.382528
v 9.411791 12.504648 -6.856955
v 6.655141 12.504648 -7.365006
v 3.444956 12.504648 -7.691311
v 0.000002 12.504648 -7.759647
v -3.444953 12.504648 -7.689778
v -6.655139 12.504648 -7.364285
v -9.411791 12.504648 -6.856956
v -11.527042 12.504648 -5.382529
v -12.856746 12.504648 -2.559129
v -13.310284 12.504648 0.000529
v -12.856747 12.504648 2.583858
v -11.527044 12.504648 5.437424
v -9.411793 12.504648 6.890104
v -6.655143 12.504648 7.365953
v -3.444956 12.504648 7.671581
v -0.000000 12.504648 7.735587
v 3.444955 12.504648 7.670145
v 6.655143 12.504648 7.365282
v 9.411794 12.504648 6.890105
v 11.527046 12.504648 5.437427
v 12.856750 12.504648 2.583859
v 13.310287 12.504648 0.000529
v 0.000000 12.504648 0.000025
vt 0.109570 0.649375
vt 0.190616 0.649375
vt 0.206357 0.957954
vt 0.129213 0.957954
vt 0.256893 0.649375
vt 0.270853 0.957954
vt 0.040504 0.649375
vt 0.066385 0.957954
vt 0.901047 0.315311
vt 0.881571 0.623901
vt 0.819332 0.315311
vt 0.803722 0.623901
vt 0.753420 0.315311
vt 0.739497 0.623901
vt 0.819206 0.649374
vt 0.900254 0.649374
vt 0.880610 0.957953
vt 0.803466 0.957952
vt 0.040504 0.315311
vt 0.066257 0.623901
vt 0.752930 0.649374
vt 0.738971 0.957952
vt 0.110179 0.315311
vt 0.129654 0.623901
vt 0.191894 0.315311
vt 0.207506 0.623901
vt 0.257808 0.315311
vt 0.271730 0.623901
vt 0.457592 0.210556
vt 0.435827 0.256771
vt 0.247145 0.168666
vt 0.401204 0.280905
vt 0.465016 0.168658
vt 0.356081 0.289221
vt 0.457592 0.126372
vt 0.303535 0.294562
vt 0.435827 0.079664
vt 0.247146 0.295681
vt 0.401203 0.055885
vt 0.190757 0.294538
vt 0.356081 0.048107
vt 0.138210 0.289210
vt 0.303535 0.043118
vt 0.093089 0.280905
vt 0.247145 0.042047
vt 0.058464 0.256770
vt 0.190757 0.043094
vt 0.036699 0.210557
vt 0.138210 0.048098
vt 0.029276 0.168658
vt 0.093088 0.055886
vt 0.036699 0.126373
vt 0.058464 0.079664
vt 0.329473 0.649375
vt 0.340621 0.957953
vt 0.414027 0.649375
vt 0.420270 0.957953
vt 0.504912 0.649375
vt 0.504913 0.957953
vt 0.595797 0.649374
vt 0.589559 0.957953
vt 0.680350 0.649374
vt 0.669204 0.957952
vt 0.330216 0.315311
vt 0.341379 0.623901
vt 0.414718 0.315311
vt 0.420980 0.623901
vt 0.505614 0.315311
vt 0.505615 0.623901
vt 0.596510 0.315311
vt 0.590250 0.623901
vt 0.681011 0.315311
vt 0.669850 0.623901
vt 0.969320 0.649374
vt 0.943437 0.957953
vt 0.970724 0.315311
vt 0.944969 0.623901
vn 0.941720 0.128997 -0.310681
vn 0.777746 0.122761 -0.616474
vn 0.771095 0.122443 -0.624836
vn 0.940969 0.128958 -0.312966
vn 0.382383 0.098801 -0.918706
vn 0.367486 0.097816 -0.924871
vn 0.139093 0.081596 -0.986912
vn 0.136303 0.081434 -0.987315
vn 0.059719 0.078148 -0.995152
vn 0.058196 0.078102 -0.995245
vn -0.000128 0.076930 -0.997037
vn -0.000128 0.076930 -0.997037
vn -0.059765 0.078205 -0.995144
vn -0.058251 0.078159 -0.995238
vn -0.138949 0.081639 -0.986929
vn -0.136157 0.081479 -0.987331
vn -0.382330 0.098812 -0.918727
vn -0.367427 0.097828 -0.924893
vn -0.777747 0.122761 -0.616474
vn -0.771095 0.122443 -0.624836
vn -0.941720 0.128997 -0.310681
vn -0.940969 0.128958 -0.312965
vn -0.991257 0.131947 0.000025
vn -0.991257 0.131947 -0.000025
vn -0.942587 0.129188 0.307962
vn -0.941891 0.129154 0.310098
vn -0.778308 0.123266 0.615664
vn -0.771624 0.122954 0.624083
vn -0.373786 0.098764 0.922242
vn -0.358512 0.097746 0.928394
vn -0.130452 0.081368 0.988110
vn -0.127796 0.081212 0.988470
vn -0.055954 0.078097 0.995374
vn -0.054513 0.078053 0.995458
vn 0.000119 0.076948 0.997035
vn 0.000119 0.076948 0.997035
vn 0.055997 0.078151 0.995368
vn 0.054563 0.078107 0.995451
vn 0.130319 0.081409 0.988124
vn 0.127661 0.081255 0.988484
vn 0.373736 0.098774 0.922261
vn 0.358456 0.097757 0.928414
vn 0.778308 0.123266 0.615664
vn 0.771623 0.122954 0.624083
vn 0.942587 0.129188 0.307962
vn 0.941891 0.129154 0.310098
vn 0.991257 0.131947 0.000024
vn 0.991257 0.131947 -0.000026
vn 0.000000 1.000000 0.000000
vn 0.000000 1.000000 0.000000
vn 0.000000 1.000000 -0.000000
vn 0.000000 1.000000 0.000000
vn 0.000000 1.000000 0.000000
vn 0.000000 1.000000 0.000000
vn 0.000000 1.000000 -0.000000
vn 0.000000 1.000000 -0.000000
vn 0.000000 1.000000 0.000000
vn 0.000000 1.000000 -0.000000
vn 0.000000 1.000000 -0.000000
vn 0.000000 1.000000 0.000000
vn 0.000000 1.000000 0.000000
vn 0.000000 1.000000 0.000000
vn 0.000000 1.000000 0.000000
vn 0.000000 1.000000 0.000000
vn 0.000000 1.000000 -0.000000
vn 0.000000 1.000000 -0.000000
vn 0.000000 1.000000 0.000000
vn 0.000000 1.000000 0.000000
vn 0.000000 1.000000 -0.000000
vn 0.000000 1.000000 0.000000
vn 0.000000 1.000000 -0.000000
vn 0.000000 1.000000 -0.000000
vn 0.000000 1.000000 0.000000
s 1
g Cliff
usemtl lambert16SG
f 1/1/1 2/2/2 26/3/3 25/4/4
f 2/2/2 3/5/5 27/6/6 26/3/3
f 3/5/5 4/54/7 28/55/8 27/6/6
f 4/54/7 5/56/9 29/57/10 28/55/8
f 5/56/9 6/58/11 30/59/12 29/57/10
f 6/58/11 7/60/13 31/61/14 30/59/12
f 7/60/13 8/62/15 32/63/16 31/61/14
f 8/62/15 9/21/17 33/22/18 32/63/16
f 9/21/17 10/15/19 34/18/20 33/22/18
f 10/15/19 11/16/21 35/17/22 34/18/20
f 11/16/21 12/74/23 36/75/24 35/17/22
f 12/19/23 13/23/25 37/24/26 36/20/24
f 13/23/25 14/25/27 38/26/28 37/24/26
f 14/25/27 15/27/29 39/28/30 38/26/28
f 15/27/29 16/64/31 40/65/32 39/28/30
f 16/64/31 17/66/33 41/67/34 40/65/32
f 17/66/33 18/68/35 42/69/36 41/67/34
f 18/68/35 19/70/37 43/71/38 42/69/36
f 19/70/37 20/72/39 44/73/40 43/71/38
f 20/72/39 21/13/41 45/14/42 44/73/40
f 21/13/41 22/11/43 46/12/44 45/14/42
f 22/11/43 23/9/45 47/10/46 46/12/44
f 23/9/45 24/76/47 48/77/48 47/10/46
f 24/7/47 1/1/1 25/4/4 48/8/48
s 2
f 25/29/49 26/30/50 49/31/51
f 26/30/50 27/32/52 49/31/51
f 27/32/52 28/34/53 49/31/51
f 28/34/53 29/36/54 49/31/51
f 29/36/54 30/38/55 49/31/51
f 30/38/55 31/40/56 49/31/51
f 31/40/56 32/42/57 49/31/51
f 32/42/57 33/44/58 49/31/51
f 33/44/58 34/46/59 49/31/51
f 34/46/59 35/48/60 49/31/51
f 35/48/60 36/50/61 49/31/51
f 36/50/61 37/52/62 49/31/51
f 37/52/62 38/53/63 49/31/51
f 38/53/63 39/51/64 49/31/51
f 39/51/64 40/49/65 49/31/51
f 40/49/65 41/47/66 49/31/51
f 41/47/66 42/45/67 49/31/51
f 42/45/67 43/43/68 49/31/51
f 43/43/68 44/41/69 49/31/51
f 44/41/69 45/39/70 49/31/51
f 45/39/70 46/37/71 49/31/51
f 46/37/71 47/35/72 49/31/51
f 47/35/72 48/33/73 49/31/51
f 48/33/73 25/29/49 49/31/51
