# This file uses centimeters as units for non-parametric coordinates.

mtllib StraightRail.mtl
g default
v 0.104519 0.499004 -6.966040
v 0.088910 0.499004 -6.935403
v 0.064597 0.499004 -6.911090
v 0.033960 0.499004 -6.895481
v 0.000000 0.499004 -6.890101
v -0.033960 0.499004 -6.895481
v -0.064597 0.499004 -6.911090
v -0.088910 0.499004 -6.935403
v -0.104519 0.499004 -6.966040
v -0.109898 0.499004 -7.000000
v -0.104519 0.499004 -7.033960
v -0.088910 0.499004 -7.064597
v -0.064597 0.499004 -7.088910
v -0.033960 0.499004 -7.104519
v -0.000000 0.499004 -7.109898
v 0.033960 0.499004 -7.104519
v 0.064597 0.499004 -7.088910
v 0.088910 0.499004 -7.064597
v 0.104519 0.499004 -7.033960
v 0.109898 0.499004 -7.000000
v 0.104519 -0.198290 -6.966040
v 0.088910 -0.198290 -6.935403
v 0.064597 -0.198290 -6.911090
v 0.033960 -0.198290 -6.895481
v 0.000000 -0.198290 -6.890101
v -0.033960 -0.198290 -6.895481
v -0.064597 -0.198290 -6.911090
v -0.088910 -0.198290 -6.935403
v -0.104519 -0.198290 -6.966040
v -0.109898 -0.198290 -7.000000
v -0.104519 -0.198290 -7.033960
v -0.088910 -0.198290 -7.064597
v -0.064597 -0.198290 -7.088910
v -0.033960 -0.198290 -7.104519
v -0.000000 -0.198290 -7.109898
v 0.033960 -0.198290 -7.104519
v 0.064597 -0.198290 -7.088910
v 0.088910 -0.198290 -7.064597
v 0.104519 -0.198290 -7.033960
v 0.109898 -0.198290 -7.000000
v 0.115430 0.457637 7.705940
v 0.098191 0.423803 7.705940
v 0.071340 0.396952 7.705940
v 0.037506 0.379712 7.705940
v 0.000000 0.373772 7.705940
v -0.037506 0.379712 7.705940
v -0.071340 0.396952 7.705940
v -0.098191 0.423803 7.705940
v -0.115430 0.457637 7.705940
v -0.121371 0.495143 7.705940
v -0.115430 0.532648 7.705940
v -0.098191 0.566482 7.705940
v -0.071340 0.593333 7.705940
v -0.037506 0.610573 7.705940
v -0.000000 0.616513 7.705940
v 0.037506 0.610573 7.705940
v 0.071340 0.593333 7.705940
v 0.098191 0.566482 7.705940
v 0.115430 0.532648 7.705940
v 0.121371 0.495143 7.705940
v 0.115430 0.457637 -7.705940
v 0.098191 0.423803 -7.705940
v 0.071340 0.396952 -7.705940
v 0.037506 0.379712 -7.705940
v 0.000000 0.373772 -7.705940
v -0.037506 0.379712 -7.705940
v -0.071340 0.396952 -7.705940
v -0.098191 0.423803 -7.705940
v -0.115430 0.457637 -7.705940
v -0.121371 0.495143 -7.705940
v -0.115430 0.532648 -7.705940
v -0.098191 0.566482 -7.705940
v -0.071340 0.593333 -7.705940
v -0.037506 0.610573 -7.705940
v -0.000000 0.616513 -7.705940
v 0.037506 0.610573 -7.705940
v 0.071340 0.593333 -7.705940
v 0.098191 0.566482 -7.705940
v 0.115430 0.532648 -7.705940
v 0.121371 0.495143 -7.705940
v 0.000000 0.495143 7.705940
v 0.000000 0.495143 -7.705940
v 0.104519 0.499004 0.033960
v 0.088910 0.499004 0.064597
v 0.064597 0.499004 0.088910
v 0.033960 0.499004 0.104519
v 0.000000 0.499004 0.109898
v -0.033960 0.499004 0.104519
v -0.064597 0.499004 0.088910
v -0.088910 0.499004 0.064597
v -0.104519 0.499004 0.033960
v -0.109898 0.499004 0.000000
v -0.104519 0.499004 -0.033960
v -0.088910 0.499004 -0.064597
v -0.064597 0.499004 -0.088910
v -0.033960 0.499004 -0.104519
v -0.000000 0.499004 -0.109898
v 0.033960 0.499004 -0.104519
v 0.064597 0.499004 -0.088910
v 0.088910 0.499004 -0.064597
v 0.104519 0.499004 -0.033960
v 0.109898 0.499004 0.000000
v 0.104519 -0.198290 0.033960
v 0.088910 -0.198290 0.064597
v 0.064597 -0.198290 0.088910
v 0.033960 -0.198290 0.104519
v 0.000000 -0.198290 0.109898
v -0.033960 -0.198290 0.104519
v -0.064597 -0.198290 0.088910
v -0.088910 -0.198290 0.064597
v -0.104519 -0.198290 0.033960
v -0.109898 -0.198290 -0.000000
v -0.104519 -0.198290 -0.033960
v -0.088910 -0.198290 -0.064597
v -0.064597 -0.198290 -0.088910
v -0.033960 -0.198290 -0.104519
v -0.000000 -0.198290 -0.109898
v 0.033960 -0.198290 -0.104519
v 0.064597 -0.198290 -0.088910
v 0.088910 -0.198290 -0.064597
v 0.104519 -0.198290 -0.033960
v 0.109898 -0.198290 -0.000000
v 0.104519 0.499004 7.033960
v 0.088910 0.499004 7.064597
v 0.064597 0.499004 7.088910
v 0.033960 0.499004 7.104519
v 0.000000 0.499004 7.109899
v -0.033960 0.499004 7.104519
v -0.064597 0.499004 7.088910
v -0.088910 0.499004 7.064597
v -0.104519 0.499004 7.033960
v -0.109898 0.499004 7.000000
v -0.104519 0.499004 6.966040
v -0.088910 0.499004 6.935403
v -0.064597 0.499004 6.911090
v -0.033960 0.499004 6.895481
v -0.000000 0.499004 6.890102
v 0.033960 0.499004 6.895481
v 0.064597 0.499004 6.911090
v 0.088910 0.499004 6.935403
v 0.104519 0.499004 6.966040
v 0.109898 0.499004 7.000000
v 0.104519 -0.198290 7.033960
v 0.088910 -0.198290 7.064597
v 0.064597 -0.198290 7.088910
v 0.033960 -0.198290 7.104519
v 0.000000 -0.198290 7.109899
v -0.033960 -0.198290 7.104519
v -0.064597 -0.198290 7.088910
v -0.088910 -0.198290 7.064597
v -0.104519 -0.198290 7.033960
v -0.109898 -0.198290 7.000000
v -0.104519 -0.198290 6.966040
v -0.088910 -0.198290 6.935403
v -0.064597 -0.198290 6.911090
v -0.033960 -0.198290 6.895481
v -0.000000 -0.198290 6.890102
v 0.033960 -0.198290 6.895481
v 0.064597 -0.198290 6.911090
v 0.088910 -0.198290 6.935403
v 0.104519 -0.198290 6.966040
v 0.109898 -0.198290 7.000000
vt 0.328081 0.326146
vt 0.345273 0.326146
vt 0.362465 0.326146
vt 0.379657 0.326146
vt 0.396849 0.326146
vt 0.414040 0.326146
vt 0.431232 0.326146
vt 0.448424 0.326146
vt 0.465616 0.326146
vt 0.482808 0.326146
vt 0.500000 0.326146
vt 0.517192 0.326146
vt 0.534384 0.326146
vt 0.551576 0.326146
vt 0.568767 0.326146
vt 0.585959 0.326146
vt 0.603151 0.326146
vt 0.620343 0.326146
vt 0.637535 0.326146
vt 0.654727 0.326146
vt 0.671919 0.326146
vt 0.328081 0.674794
vt 0.345273 0.674794
vt 0.362465 0.674794
vt 0.379657 0.674794
vt 0.396849 0.674794
vt 0.414040 0.674794
vt 0.431232 0.674794
vt 0.448424 0.674794
vt 0.465616 0.674794
vt 0.482808 0.674794
vt 0.500000 0.674794
vt 0.517192 0.674794
vt 0.534384 0.674794
vt 0.551576 0.674794
vt 0.568767 0.674794
vt 0.585959 0.674794
vt 0.603151 0.674794
vt 0.620343 0.674794
vt 0.637535 0.674794
vt 0.654727 0.674794
vt 0.671919 0.674794
vt 0.310136 -3.352535
vt 0.329122 -3.352535
vt 0.329122 4.353475
vt 0.310136 4.353475
vt 0.348109 -3.352535
vt 0.348109 4.353475
vt 0.367095 -3.352535
vt 0.367095 4.353475
vt 0.386080 -3.352535
vt 0.386080 4.353475
vt 0.405067 -3.352535
vt 0.405067 4.353475
vt 0.424054 -3.352535
vt 0.424054 4.353475
vt 0.443040 -3.352535
vt 0.443040 4.353475
vt 0.462027 -3.352535
vt 0.462027 4.353475
vt 0.481014 -3.352535
vt 0.481014 4.353475
vt 0.500000 -3.352535
vt 0.500000 4.353475
vt 0.518987 -3.352535
vt 0.518987 4.353475
vt 0.537974 -3.352535
vt 0.537974 4.353475
vt 0.556960 -3.352535
vt 0.556960 4.353475
vt 0.575947 -3.352535
vt 0.575947 4.353475
vt 0.594933 -3.352535
vt 0.594933 4.353475
vt 0.613919 -3.352535
vt 0.613919 4.353475
vt 0.632905 -3.352535
vt 0.632905 4.353475
vt 0.651891 -3.352535
vt 0.651891 4.353475
vt 0.670877 -3.352535
vt 0.670877 4.353475
vt 0.689864 -3.352535
vt 0.689864 4.353475
vt 0.549095 0.120282
vt 0.557715 0.137200
vt 0.500000 0.155952
vt 0.535670 0.106857
vt 0.518753 0.098237
vt 0.500000 0.095267
vt 0.481247 0.098237
vt 0.464330 0.106857
vt 0.450905 0.120282
vt 0.442285 0.137200
vt 0.439315 0.155952
vt 0.442285 0.174705
vt 0.450905 0.191622
vt 0.464330 0.205048
vt 0.481247 0.213667
vt 0.500000 0.216638
vt 0.518753 0.213667
vt 0.535670 0.205048
vt 0.549095 0.191622
vt 0.557715 0.174705
vt 0.560685 0.155952
vt 0.557715 0.862205
vt 0.549095 0.879122
vt 0.500000 0.843452
vt 0.535670 0.892548
vt 0.518753 0.901167
vt 0.500000 0.904138
vt 0.481247 0.901167
vt 0.464330 0.892548
vt 0.450905 0.879122
vt 0.442285 0.862205
vt 0.439315 0.843452
vt 0.442285 0.824700
vt 0.450905 0.807782
vt 0.464330 0.794357
vt 0.481247 0.785737
vt 0.500000 0.782767
vt 0.518753 0.785737
vt 0.535670 0.794357
vt 0.549095 0.807782
vt 0.557715 0.824700
vt 0.560685 0.843452
vt 0.328081 0.326146
vt 0.345273 0.326146
vt 0.345273 0.674794
vt 0.328081 0.674794
vt 0.362465 0.326146
vt 0.362465 0.674794
vt 0.379657 0.326146
vt 0.379657 0.674794
vt 0.396849 0.326146
vt 0.396849 0.674794
vt 0.414040 0.326146
vt 0.414040 0.674794
vt 0.431232 0.326146
vt 0.431232 0.674794
vt 0.448424 0.326146
vt 0.448424 0.674794
vt 0.465616 0.326146
vt 0.465616 0.674794
vt 0.482808 0.326146
vt 0.482808 0.674794
vt 0.500000 0.326146
vt 0.500000 0.674794
vt 0.517192 0.326146
vt 0.517192 0.674794
vt 0.534384 0.326146
vt 0.534384 0.674794
vt 0.551576 0.326146
vt 0.551576 0.674794
vt 0.568767 0.326146
vt 0.568767 0.674794
vt 0.585959 0.326146
vt 0.585959 0.674794
vt 0.603151 0.326146
vt 0.603151 0.674794
vt 0.620343 0.326146
vt 0.620343 0.674794
vt 0.637535 0.326146
vt 0.637535 0.674794
vt 0.654727 0.326146
vt 0.654727 0.674794
vt 0.671919 0.326146
vt 0.671919 0.674794
vt 0.328081 0.326146
vt 0.345273 0.326146
vt 0.345273 0.674794
vt 0.328081 0.674794
vt 0.362465 0.326146
vt 0.362465 0.674794
vt 0.379657 0.326146
vt 0.379657 0.674794
vt 0.396849 0.326146
vt 0.396849 0.674794
vt 0.414040 0.326146
vt 0.414040 0.674794
vt 0.431232 0.326146
vt 0.431232 0.674794
vt 0.448424 0.326146
vt 0.448424 0.674794
vt 0.465616 0.326146
vt 0.465616 0.674794
vt 0.482808 0.326146
vt 0.482808 0.674794
vt 0.500000 0.326146
vt 0.500000 0.674794
vt 0.517192 0.326146
vt 0.517192 0.674794
vt 0.534384 0.326146
vt 0.534384 0.674794
vt 0.551576 0.326146
vt 0.551576 0.674794
vt 0.568767 0.326146
vt 0.568767 0.674794
vt 0.585959 0.326146
vt 0.585959 0.674794
vt 0.603151 0.326146
vt 0.603151 0.674794
vt 0.620343 0.326146
vt 0.620343 0.674794
vt 0.637535 0.326146
vt 0.637535 0.674794
vt 0.654727 0.326146
vt 0.654727 0.674794
vt 0.671919 0.326146
vt 0.671919 0.674794
vn 0.951057 0.000000 0.309015
vn 0.809017 0.000000 0.587785
vn 0.809017 0.000000 0.587785
vn 0.951057 0.000000 0.309015
vn 0.587781 0.000000 0.809020
vn 0.587781 0.000000 0.809020
vn 0.309022 0.000000 0.951055
vn 0.309022 0.000000 0.951055
vn 0.000000 0.000000 1.000000
vn 0.000000 0.000000 1.000000
vn -0.309022 0.000000 0.951055
vn -0.309022 0.000000 0.951055
vn -0.587782 0.000000 0.809020
vn -0.587782 0.000000 0.809020
vn -0.809017 0.000000 0.587785
vn -0.809017 0.000000 0.587785
vn -0.951057 0.000000 0.309016
vn -0.951057 0.000000 0.309016
vn -1.000000 0.000000 0.000000
vn -1.000000 0.000000 0.000000
vn -0.951057 0.000000 -0.309016
vn -0.951057 0.000000 -0.309016
vn -0.809017 0.000000 -0.587785
vn -0.809017 0.000000 -0.587785
vn -0.587782 0.000000 -0.809020
vn -0.587782 0.000000 -0.809020
vn -0.309022 0.000000 -0.951055
vn -0.309022 0.000000 -0.951055
vn 0.000000 0.000000 -1.000000
vn 0.000000 0.000000 -1.000000
vn 0.309022 0.000000 -0.951055
vn 0.309022 0.000000 -0.951055
vn 0.587782 0.000000 -0.809020
vn 0.587782 0.000000 -0.809020
vn 0.809017 0.000000 -0.587785
vn 0.809017 0.000000 -0.587785
vn 0.951057 0.000000 -0.309015
vn 0.951057 0.000000 -0.309015
vn 1.000000 0.000000 -0.000001
vn 1.000000 0.000000 -0.000001
vn 0.951057 -0.309016 0.000000
vn 0.809017 -0.587785 0.000000
vn 0.809017 -0.587785 0.000000
vn 0.951057 -0.309016 0.000000
vn 0.587785 -0.809017 0.000000
vn 0.587785 -0.809017 0.000000
vn 0.309017 -0.951057 0.000000
vn 0.309017 -0.951057 0.000000
vn 0.000000 -1.000000 0.000000
vn 0.000000 -1.000000 0.000000
vn -0.309017 -0.951056 0.000000
vn -0.309017 -0.951056 0.000000
vn -0.587785 -0.809017 0.000000
vn -0.587785 -0.809017 0.000000
vn -0.809017 -0.587785 0.000000
vn -0.809017 -0.587785 0.000000
vn -0.951057 -0.309017 0.000000
vn -0.951057 -0.309017 0.000000
vn -1.000000 0.000000 0.000000
vn -1.000000 0.000000 0.000000
vn -0.951057 0.309017 0.000000
vn -0.951057 0.309017 0.000000
vn -0.809017 0.587785 0.000000
vn -0.809017 0.587785 0.000000
vn -0.587785 0.809017 0.000000
vn -0.587785 0.809017 0.000000
vn -0.309017 0.951057 0.000000
vn -0.309017 0.951057 0.000000
vn 0.000000 1.000000 0.000000
vn 0.000000 1.000000 0.000000
vn 0.309017 0.951057 0.000000
vn 0.309017 0.951057 0.000000
vn 0.587785 0.809017 0.000000
vn 0.587785 0.809017 0.000000
vn 0.809017 0.587785 0.000000
vn 0.809017 0.587785 0.000000
vn 0.951056 0.309017 0.000000
vn 0.951056 0.309017 0.000000
vn 1.000000 0.000001 0.000000
vn 1.000000 0.000001 0.000000
vn 0.000013 0.000000 1.000000
vn 0.000013 0.000000 1.000000
vn 0.000000 0.000000 1.000000
vn 0.000000 0.000000 1.000000
vn 0.000013 0.000000 1.000000
vn 0.000000 0.000000 1.000000
vn -0.000013 0.000000 1.000000
vn 0.000000 0.000000 1.000000
vn -0.000007 0.000000 1.000000
vn -0.000007 0.000000 1.000000
vn 0.000000 0.000000 1.000000
vn -0.000013 0.000000 1.000000
vn 0.000000 0.000000 1.000000
vn 0.000013 0.000000 1.000000
vn -0.000013 0.000000 1.000000
vn -0.000000 0.000000 1.000000
vn 0.000000 0.000000 1.000000
vn -0.000013 0.000000 1.000000
vn 0.000007 0.000000 1.000000
vn 0.000007 0.000000 1.000000
vn 0.000000 0.000000 1.000000
vn 0.000007 0.000000 -1.000000
vn 0.000007 0.000000 -1.000000
vn 0.000001 0.000000 -1.000000
vn -0.000013 0.000000 -1.000000
vn -0.000000 0.000000 -1.000000
vn 0.000000 0.000000 -1.000000
vn -0.000013 0.000000 -1.000000
vn 0.000000 0.000000 -1.000000
vn -0.000013 0.000000 -1.000000
vn -0.000013 0.000000 -1.000000
vn 0.000000 0.000000 -1.000000
vn -0.000007 0.000000 -1.000000
vn 0.000007 0.000000 -1.000000
vn 0.000026 0.000000 -1.000000
vn 0.000000 0.000000 -1.000000
vn 0.000000 0.000000 -1.000000
vn 0.000013 0.000000 -1.000000
vn 0.000000 0.000000 -1.000000
vn 0.000013 0.000000 -1.000000
vn 0.000013 0.000000 -1.000000
vn 0.000000 0.000000 -1.000000
vn 0.951057 -0.000000 0.309015
vn 0.809017 0.000000 0.587785
vn 0.809017 0.000000 0.587785
vn 0.951057 -0.000000 0.309015
vn 0.587784 0.000000 0.809018
vn 0.587784 0.000000 0.809018
vn 0.309018 0.000000 0.951056
vn 0.309018 0.000000 0.951056
vn 0.000001 0.000000 1.000000
vn 0.000001 0.000000 1.000000
vn -0.309018 0.000000 0.951056
vn -0.309018 0.000000 0.951056
vn -0.587785 0.000000 0.809017
vn -0.587785 0.000000 0.809017
vn -0.809017 0.000000 0.587785
vn -0.809017 0.000000 0.587785
vn -0.951057 0.000000 0.309017
vn -0.951057 0.000000 0.309017
vn -1.000000 0.000000 0.000000
vn -1.000000 0.000000 0.000000
vn -0.951057 0.000000 -0.309017
vn -0.951057 0.000000 -0.309017
vn -0.809017 0.000000 -0.587785
vn -0.809017 0.000000 -0.587785
vn -0.587785 0.000000 -0.809017
vn -0.587785 0.000000 -0.809017
vn -0.309016 0.000000 -0.951057
vn -0.309016 0.000000 -0.951057
vn -0.000001 0.000000 -1.000000
vn -0.000001 0.000000 -1.000000
vn 0.309016 0.000000 -0.951057
vn 0.309016 0.000000 -0.951057
vn 0.587785 0.000000 -0.809017
vn 0.587785 0.000000 -0.809017
vn 0.809017 0.000000 -0.587785
vn 0.809017 0.000000 -0.587785
vn 0.951057 0.000000 -0.309016
vn 0.951057 0.000000 -0.309016
vn 1.000000 -0.000000 -0.000001
vn 1.000000 -0.000000 -0.000001
vn 0.951057 0.000000 0.309015
vn 0.809017 0.000000 0.587785
vn 0.809017 0.000000 0.587785
vn 0.951057 0.000000 0.309015
vn 0.587781 0.000000 0.809020
vn 0.587781 0.000000 0.809020
vn 0.309022 0.000000 0.951055
vn 0.309022 0.000000 0.951055
vn 0.000000 0.000000 1.000000
vn 0.000000 0.000000 1.000000
vn -0.309022 0.000000 0.951055
vn -0.309022 0.000000 0.951055
vn -0.587782 0.000000 0.809020
vn -0.587782 0.000000 0.809020
vn -0.809017 0.000000 0.587785
vn -0.809017 0.000000 0.587785
vn -0.951057 0.000000 0.309016
vn -0.951057 0.000000 0.309016
vn -1.000000 0.000000 0.000000
vn -1.000000 0.000000 0.000000
vn -0.951057 0.000000 -0.309016
vn -0.951057 0.000000 -0.309016
vn -0.809017 0.000000 -0.587785
vn -0.809017 0.000000 -0.587785
vn -0.587782 0.000000 -0.809020
vn -0.587782 0.000000 -0.809020
vn -0.309022 0.000000 -0.951055
vn -0.309022 0.000000 -0.951055
vn 0.000000 0.000000 -1.000000
vn 0.000000 0.000000 -1.000000
vn 0.309022 0.000000 -0.951055
vn 0.309022 0.000000 -0.951055
vn 0.587782 0.000000 -0.809020
vn 0.587782 0.000000 -0.809020
vn 0.809017 0.000000 -0.587785
vn 0.809017 0.000000 -0.587785
vn 0.951057 0.000000 -0.309015
vn 0.951057 0.000000 -0.309015
vn 1.000000 0.000000 -0.000001
vn 1.000000 0.000000 -0.000001
s 1
g StraightRail
usemtl lambert18SG
f 1/1/1 2/2/2 22/23/3 21/22/4
f 2/2/2 3/3/5 23/24/6 22/23/3
f 3/3/5 4/4/7 24/25/8 23/24/6
f 4/4/7 5/5/9 25/26/10 24/25/8
f 5/5/9 6/6/11 26/27/12 25/26/10
f 6/6/11 7/7/13 27/28/14 26/27/12
f 7/7/13 8/8/15 28/29/16 27/28/14
f 8/8/15 9/9/17 29/30/18 28/29/16
f 9/9/17 10/10/19 30/31/20 29/30/18
f 10/10/19 11/11/21 31/32/22 30/31/20
f 11/11/21 12/12/23 32/33/24 31/32/22
f 12/12/23 13/13/25 33/34/26 32/33/24
f 13/13/25 14/14/27 34/35/28 33/34/26
f 14/14/27 15/15/29 35/36/30 34/35/28
f 15/15/29 16/16/31 36/37/32 35/36/30
f 16/16/31 17/17/33 37/38/34 36/37/32
f 17/17/33 18/18/35 38/39/36 37/38/34
f 18/18/35 19/19/37 39/40/38 38/39/36
f 19/19/37 20/20/39 40/41/40 39/40/38
f 20/20/39 1/21/1 21/42/4 40/41/40
s 2
f 41/43/41 42/44/42 62/45/43 61/46/44
f 42/44/42 43/47/45 63/48/46 62/45/43
f 43/47/45 44/49/47 64/50/48 63/48/46
f 44/49/47 45/51/49 65/52/50 64/50/48
f 45/51/49 46/53/51 66/54/52 65/52/50
f 46/53/51 47/55/53 67/56/54 66/54/52
f 47/55/53 48/57/55 68/58/56 67/56/54
f 48/57/55 49/59/57 69/60/58 68/58/56
f 49/59/57 50/61/59 70/62/60 69/60/58
f 50/61/59 51/63/61 71/64/62 70/62/60
f 51/63/61 52/65/63 72/66/64 71/64/62
f 52/65/63 53/67/65 73/68/66 72/66/64
f 53/67/65 54/69/67 74/70/68 73/68/66
f 54/69/67 55/71/69 75/72/70 74/70/68
f 55/71/69 56/73/71 76/74/72 75/72/70
f 56/73/71 57/75/73 77/76/74 76/74/72
f 57/75/73 58/77/75 78/78/76 77/76/74
f 58/77/75 59/79/77 79/80/78 78/78/76
f 59/79/77 60/81/79 80/82/80 79/80/78
f 60/81/79 41/83/41 61/84/44 80/82/80
s 3
f 42/85/81 41/86/82 81/87/83
f 43/88/84 42/85/81 81/87/83
f 44/89/85 43/88/84 81/87/83
f 45/90/86 44/89/85 81/87/83
f 46/91/87 45/90/86 81/87/83
f 47/92/88 46/91/87 81/87/83
f 48/93/89 47/92/88 81/87/83
f 49/94/90 48/93/89 81/87/83
f 50/95/91 49/94/90 81/87/83
f 51/96/92 50/95/91 81/87/83
f 52/97/93 51/96/92 81/87/83
f 53/98/94 52/97/93 81/87/83
f 54/99/95 53/98/94 81/87/83
f 55/100/96 54/99/95 81/87/83
f 56/101/97 55/100/96 81/87/83
f 57/102/98 56/101/97 81/87/83
f 58/103/99 57/102/98 81/87/83
f 59/104/100 58/103/99 81/87/83
f 60/105/101 59/104/100 81/87/83
f 41/86/82 60/105/101 81/87/83
s 4
f 61/106/102 62/107/103 82/108/104
f 62/107/103 63/109/105 82/108/104
f 63/109/105 64/110/106 82/108/104
f 64/110/106 65/111/107 82/108/104
f 65/111/107 66/112/108 82/108/104
f 66/112/108 67/113/109 82/108/104
f 67/113/109 68/114/110 82/108/104
f 68/114/110 69/115/111 82/108/104
f 69/115/111 70/116/112 82/108/104
f 70/116/112 71/117/113 82/108/104
f 71/117/113 72/118/114 82/108/104
f 72/118/114 73/119/115 82/108/104
f 73/119/115 74/120/116 82/108/104
f 74/120/116 75/121/117 82/108/104
f 75/121/117 76/122/118 82/108/104
f 76/122/118 77/123/119 82/108/104
f 77/123/119 78/124/120 82/108/104
f 78/124/120 79/125/121 82/108/104
f 79/125/121 80/126/122 82/108/104
f 80/126/122 61/106/102 82/108/104
s 5
f 83/127/123 84/128/124 104/129/125 103/130/126
f 84/128/124 85/131/127 105/132/128 104/129/125
f 85/131/127 86/133/129 106/134/130 105/132/128
f 86/133/129 87/135/131 107/136/132 106/134/130
f 87/135/131 88/137/133 108/138/134 107/136/132
f 88/137/133 89/139/135 109/140/136 108/138/134
f 89/139/135 90/141/137 110/142/138 109/140/136
f 90/141/137 91/143/139 111/144/140 110/142/138
f 91/143/139 92/145/141 112/146/142 111/144/140
f 92/145/141 93/147/143 113/148/144 112/146/142
f 93/147/143 94/149/145 114/150/146 113/148/144
f 94/149/145 95/151/147 115/152/148 114/150/146
f 95/151/147 96/153/149 116/154/150 115/152/148
f 96/153/149 97/155/151 117/156/152 116/154/150
f 97/155/151 98/157/153 118/158/154 117/156/152
f 98/157/153 99/159/155 119/160/156 118/158/154
f 99/159/155 100/161/157 120/162/158 119/160/156
f 100/161/157 101/163/159 121/164/160 120/162/158
f 101/163/159 102/165/161 122/166/162 121/164/160
f 102/165/161 83/167/123 103/168/126 122/166/162
s 6
f 123/169/163 124/170/164 144/171/165 143/172/166
f 124/170/164 125/173/167 145/174/168 144/171/165
f 125/173/167 126/175/169 146/176/170 145/174/168
f 126/175/169 127/177/171 147/178/172 146/176/170
f 127/177/171 128/179/173 148/180/174 147/178/172
f 128/179/173 129/181/175 149/182/176 148/180/174
f 129/181/175 130/183/177 150/184/178 149/182/176
f 130/183/177 131/185/179 151/186/180 150/184/178
f 131/185/179 132/187/181 152/188/182 151/186/180
f 132/187/181 133/189/183 153/190/184 152/188/182
f 133/189/183 134/191/185 154/192/186 153/190/184
f 134/191/185 135/193/187 155/194/188 154/192/186
f 135/193/187 136/195/189 156/196/190 155/194/188
f 136/195/189 137/197/191 157/198/192 156/196/190
f 137/197/191 138/199/193 158/200/194 157/198/192
f 138/199/193 139/201/195 159/202/196 158/200/194
f 139/201/195 140/203/197 160/204/198 159/202/196
f 140/203/197 141/205/199 161/206/200 160/204/198
f 141/205/199 142/207/201 162/208/202 161/206/200
f 142/207/201 123/209/163 143/210/166 162/208/202
